PathFileType	3	(X/Y/Z)	RCH0000002 BBF 06.c3d
DataRate	CameraRate	NumFrames	NumMarkers	Units	OrigDataRate	OrigDataStartFrame	OrigNumFrames
100.0	100.0	5	23	mm	100.0	607	380
Frame#	Time	LASI			RASI			LPAT			LKNE			LANK			LMED			LTOE			RPAT			RKNE			RANK			RTOE			RMED			RHEE			RPSI			T2			T10			LPSI			LHEE			MAN			RTHI			LTHI			RTIB			LTIB			
		X1	Y1	Z1	X2	Y2	Z2	X3	Y3	Z3	X4	Y4	Z4	X5	Y5	Z5	X6	Y6	Z6	X7	Y7	Z7	X8	Y8	Z8	X9	Y9	Z9	X10	Y10	Z10	X11	Y11	Z11	X12	Y12	Z12	X13	Y13	Z13	X14	Y14	Z14	X15	Y15	Z15	X16	Y16	Z16	X17	Y17	Z17	X18	Y18	Z18	X19	Y19	Z19	X20	Y20	Z20	X21	Y21	Z21	X22	Y22	Z22	X23	Y23	Z23	

607	6.060	1482.73501	60.19942	653.34827	1497.54509	-115.70059	650.08269	1487.21431	17.79522	386.03390	1445.53863	76.17646	345.69957	1400.73183	71.44509	72.34726	1402.99669	3.01802	91.88632	1450.41447	35.68897	71.04757	1513.47704	-65.43202	357.74611	1455.65079	-114.17942	334.27562	1272.19564	-123.32486	134.70856	1297.62645	-84.91623	98.08455	1270.59141	-55.49474	151.83136	1255.68321	-93.83781	188.66897	1382.79739	-72.64433	707.21875	1350.46840	-2.49565	976.93444	1390.18272	-28.29912	793.46152	1378.31625	-1.39552	708.51746	1359.58632	33.25066	103.39795	1482.07176	15.97703	959.01517	1474.19438	-186.85925	442.30943	1442.05947	146.98990	470.10211	1380.31148	-184.52014	253.19932	1422.43542	138.62172	228.05210	
608	6.070	1487.47609	61.04407	653.54518	1504.58024	-114.57361	649.79790	1488.34982	18.74494	385.56732	1445.66939	76.83484	345.74724	1400.19372	71.01319	72.41446	1403.39175	2.60587	92.18862	1450.33652	35.75852	71.05111	1528.92709	-65.55905	360.00845	1471.41382	-114.47105	335.29241	1287.88505	-124.69242	136.57760	1314.60849	-87.21149	100.25627	1286.63336	-56.61281	152.71930	1271.09899	-94.39446	189.85694	1389.44633	-73.21136	707.21292	1357.44217	-3.87712	977.38605	1396.70439	-29.05369	793.76187	1384.10587	-2.11763	708.94471	1359.48827	32.38094	103.70307	1488.95796	15.05195	959.22055	1486.58324	-186.92703	444.00424	1443.60990	147.56499	470.24043	1395.88799	-185.13709	255.42277	1421.08907	138.83872	227.98277	
609	6.080	1492.13962	61.79000	653.66546	1511.43985	-113.51766	649.55453	1489.63182	19.63671	385.09443	1445.97449	77.42810	345.79504	1399.75433	70.70515	72.50529	1403.79294	2.29662	92.50439	1450.29758	35.87985	71.05227	1544.28365	-65.73980	362.70313	1487.15899	-114.81031	336.65309	1304.32058	-125.91330	138.01704	1332.47851	-89.34341	102.19096	1303.34679	-57.60363	153.20728	1287.03034	-94.82078	190.55563	1395.96557	-73.78929	707.13625	1364.34347	-5.14970	977.77414	1403.06370	-29.72315	793.97158	1389.76912	-2.87158	709.25176	1359.46807	31.68519	104.03887	1495.77477	14.09246	959.32371	1498.89604	-187.06562	445.93027	1445.22592	148.04262	470.37820	1411.61541	-185.72310	257.65612	1420.03654	139.05614	227.96070	
610	6.090	1496.74650	62.43167	653.73917	1518.14842	-112.55139	649.34635	1491.08054	20.48151	384.62531	1446.48485	77.97852	345.85558	1399.43312	70.54515	72.62788	1404.19974	2.12068	92.83932	1450.30868	36.06860	71.05624	1559.50096	-65.95423	365.81600	1502.85799	-115.17837	338.35030	1321.48148	-126.99164	139.01804	1351.15969	-91.28528	103.86939	1320.70163	-58.47419	153.31129	1303.47545	-95.14551	190.77140	1402.35976	-74.40253	706.99066	1371.18692	-6.30591	978.10825	1409.27497	-30.33772	794.10812	1395.31571	-3.67631	709.45359	1359.54415	31.19878	104.41352	1502.53708	13.10593	959.33393	1511.13312	-187.26129	448.06712	1446.95197	148.43702	470.53499	1427.49856	-186.27261	259.86348	1419.32433	139.30406	227.99106	
611	6.100	1501.31940	62.96377	653.79446	1524.72775	-111.69191	649.16886	1492.70925	21.27740	384.16855	1447.22454	78.49633	345.93835	1399.23891	70.53375	72.79011	1404.61344	2.08594	93.19646	1450.37749	36.32544	71.06799	1574.52944	-66.17927	369.32485	1518.47834	-115.55390	340.37008	1339.33271	-127.94086	139.59545	1370.56809	-93.02688	105.29108	1338.66168	-59.23730	153.06055	1320.42228	-95.39841	190.52704	1408.63312	-75.06759	706.77951	1377.98896	-7.34716	978.40059	1415.35328	-30.92542	794.19083	1400.75845	-4.54293	709.56553	1359.72905	30.92587	104.83342	1509.26127	12.09650	959.26255	1523.28361	-187.49840	450.39137	1448.83152	148.75609	470.72370	1443.53705	-186.78113	262.01920	1418.97494	139.59506	228.07660	
